<svg xmlns="http://www.w3.org/2000/svg" viewBox="0 0 800 230"><style>.st0{display:none;} .st1{display:inline;} .st2{fill:#FFFFFF;} .st3{fill:none;stroke:#9882CE;stroke-width:4;stroke-miterlimit:10;} .st4{fill:none;stroke:#404040;stroke-width:4;stroke-linecap:round;stroke-linejoin:round;stroke-miterlimit:10;} .st5{fill:#B3E3FF;stroke:#404040;stroke-width:4;stroke-miterlimit:10;} .st6{fill:#FFFFFF;stroke:#59AFE1;stroke-width:4;stroke-miterlimit:10;} .st7{fill:#FFFFFF;stroke:#404040;stroke-width:4;stroke-miterlimit:10;} .st8{fill:#B18BE8;stroke:#404040;stroke-width:4;stroke-linecap:round;stroke-linejoin:round;stroke-miterlimit:10;} .st9{fill:#404040;} .st10{fill:#CCCCCC;stroke:#404040;stroke-width:4;stroke-miterlimit:10;} .st11{fill:#FFFFFF;stroke:#404040;stroke-width:4;stroke-linecap:round;stroke-linejoin:round;stroke-miterlimit:10;} .st12{fill:#999999;} .st13{fill:#B3E3FF;stroke:#404040;stroke-width:4;stroke-linejoin:round;stroke-miterlimit:10;} .st14{fill:#59AFE1;stroke:#404040;stroke-width:4;stroke-linejoin:round;stroke-miterlimit:10;} .st15{fill:none;stroke:#CCCCCC;stroke-linecap:round;stroke-linejoin:round;stroke-miterlimit:10;} .st16{fill:none;stroke:#404040;stroke-width:4;stroke-miterlimit:10;} .st17{fill:#B18BE8;stroke:#404040;stroke-width:4;stroke-miterlimit:10;} .st18{fill:#FFFFFF;stroke:#6693ED;stroke-width:4;stroke-miterlimit:10;} .st19{fill:#4ED1A1;stroke:#404040;stroke-width:4;stroke-miterlimit:10;} .st20{fill:none;stroke:#4D4D4D;stroke-width:4;stroke-linecap:round;stroke-linejoin:round;stroke-miterlimit:10;} .st21{fill:none;stroke:#59AFE1;stroke-width:4;stroke-linecap:round;stroke-linejoin:round;stroke-miterlimit:10;} .st22{fill:none;stroke:#59AFE1;stroke-width:4;stroke-miterlimit:10;} .st23{fill:none;stroke:#CCCCCC;stroke-width:4;stroke-linecap:round;stroke-linejoin:round;stroke-miterlimit:10;} .st24{fill:#FFFFFF;stroke:#CCCCCC;stroke-width:4;stroke-linecap:round;stroke-linejoin:round;stroke-miterlimit:10;} .st25{fill:#FFFFFF;stroke:#404040;stroke-width:4;stroke-linejoin:round;stroke-miterlimit:10;}</style><path class="st4" d="M518.9 133.2h-35.5m26.8-10.9l10.9 10.9-10.9 10.8m-151.2-10.8h-35.4m26.7-10.9l10.9 10.9-10.9 10.8m-10.3-99h-15.4v-15.3"/><path class="st25" d="M256.3 48.8v35.1h36.3v77.2h-85.4v-112.3h49.1"/><path class="st8" d="M256.3 48.8l36.3 35.2-36.3-.1z"/><path class="st25" d="M229.8 80v35.2h36.3v77.2h-85.4v-112.4h49.1"/><path class="st8" d="M229.8 80l36.3 35.2h-36.3z"/><path class="st25" d="M203.3 111.2v35.2h36.3v77.2h-85.4v-112.4h49.1"/><path class="st8" d="M203.3 111.2l36.3 35.2h-36.3z"/><path class="st25" d="M551.1 42.7h94.7v181h-94.7z"/><path class="st16" d="M598.4 83.1v100.1"/><circle class="st5" cx="598.4" cy="183.2" r="18"/><circle class="st5" cx="598.4" cy="133.2" r="18"/><circle class="st5" cx="598.4" cy="83.1" r="18"/><circle class="st14" cx="422.4" cy="133.2" r="30"/><path class="st4" d="M517.1 41.8c-24.9-23.1-58.1-37.2-94.7-37.2-36.5 0-69.7 14-94.5 37"/></svg>